<svg width="1080" height="1920" xmlns="http://www.w3.org/2000/svg">
  <defs>
    <linearGradient id="greenHex" x1="0%" y1="0%" x2="100%" y2="100%">
      <stop offset="0%" style="stop-color:#14B8A6;stop-opacity:1" />
      <stop offset="100%" style="stop-color:#0D9488;stop-opacity:1" />
    </linearGradient>
  </defs>
  <rect width="1080" height="1920" fill="url(#greenHex)"/>
  <!-- Hexagones géométriques -->
  <g opacity="0.15" fill="#FFFFFF">
    <polygon points="270,200 370,250 370,350 270,400 170,350 170,250"/>
    <polygon points="540,400 640,450 640,550 540,600 440,550 440,450"/>
    <polygon points="810,600 910,650 910,750 810,800 710,750 710,650"/>
    <polygon points="270,1000 370,1050 370,1150 270,1200 170,1150 170,1050"/>
    <polygon points="540,1200 640,1250 640,1350 540,1400 440,1350 440,1250"/>
    <polygon points="810,1400 910,1450 910,1550 810,1600 710,1550 710,1450"/>
  </g>
</svg>
