<svg width="1080" height="1920" xmlns="http://www.w3.org/2000/svg">
  <defs>
    <linearGradient id="greenTriangles" x1="0%" y1="0%" x2="100%" y2="100%">
      <stop offset="0%" style="stop-color:#6EE7B7;stop-opacity:1" />
      <stop offset="100%" style="stop-color:#10B981;stop-opacity:1" />
    </linearGradient>
  </defs>
  <rect width="1080" height="1920" fill="url(#greenTriangles)"/>
  <!-- Triangles géométriques -->
  <g opacity="0.2" fill="#FFFFFF">
    <polygon points="540,100 740,400 340,400"/>
    <polygon points="200,600 400,900 0,900"/>
    <polygon points="880,800 1080,1100 680,1100"/>
    <polygon points="300,1200 500,1500 100,1500"/>
    <polygon points="780,1400 980,1700 580,1700"/>
  </g>
  <g opacity="0.1" fill="#065F46">
    <polygon points="100,300 250,550 0,550"/>
    <polygon points="800,500 950,750 650,750"/>
    <polygon points="400,1000 550,1250 250,1250"/>
    <polygon points="900,1500 1050,1750 750,1750"/>
  </g>
</svg>
